<svg width="60" height="61" viewBox="0 0 60 61" fill="none" xmlns="http://www.w3.org/2000/svg">
<path d="M18.0547 49.225C18.126 49.3122 18.2157 49.3826 18.3173 49.4312C18.4188 49.4799 18.5299 49.5056 18.6425 49.5066C18.6703 49.5066 18.6979 49.5066 18.7252 49.5066H25.3942C26.2973 49.504 27.1629 49.1444 27.8021 48.5064C28.4413 47.8683 28.8024 47.0034 28.8066 46.1002V32.7574C28.8055 32.5091 28.8536 32.2631 28.9481 32.0335C29.0426 31.804 29.1818 31.5955 29.3574 31.42C29.5331 31.2446 29.7417 31.1057 29.9714 31.0115C30.2011 30.9172 30.4472 30.8694 30.6954 30.8709H30.768C31.8183 30.8709 32.7018 31.707 32.7018 32.7574V42.4082C32.7018 43.3197 33.0639 44.1939 33.7085 44.8385C34.353 45.483 35.2272 45.8451 36.1387 45.8451C37.0502 45.8451 37.9244 45.483 38.569 44.8385C39.2135 44.1939 39.5756 43.3197 39.5756 42.4082V27.6028C39.5721 27.3605 39.6169 27.12 39.7074 26.8952C39.7979 26.6705 39.9323 26.466 40.1028 26.2939C40.2732 26.1217 40.4763 25.9852 40.7002 25.8925C40.924 25.7997 41.1641 25.7526 41.4064 25.7537H43.1653V25.709C43.1613 25.6988 43.1584 25.6882 43.1564 25.6773H43.1569C43.2673 25.6803 43.377 25.6588 43.4781 25.6145C43.5792 25.5701 43.6693 25.5039 43.7419 25.4206L47.1203 21.4036C48.1636 20.3267 48.7438 18.8843 48.7369 17.385C48.7458 15.9094 48.1774 14.4889 47.1532 13.4266C46.652 12.9046 46.0501 12.4897 45.384 12.2069C44.7178 11.9241 44.0012 11.7793 43.2776 11.7813C42.537 11.7816 41.8043 11.9319 41.1234 12.2231C40.4425 12.5143 39.8277 12.9403 39.316 13.4756C37.1596 15.6803 37.1289 19.2656 39.2423 21.4697L41.5423 24.2262H41.4064C40.9635 24.2253 40.5249 24.3121 40.1159 24.4817C39.7068 24.6513 39.3354 24.9003 39.0232 25.2142C38.7109 25.5282 38.464 25.9009 38.2966 26.3109C38.1292 26.7209 38.0448 27.16 38.0481 27.6028V42.4082C38.0453 42.6597 37.9928 42.9082 37.8938 43.1393C37.7948 43.3705 37.6511 43.5799 37.4709 43.7554C37.2954 43.9327 37.0864 44.0733 36.856 44.1691C36.6256 44.2648 36.3784 44.3137 36.1289 44.313C35.6245 44.3122 35.141 44.1111 34.7847 43.7539C34.4285 43.3967 34.2287 42.9127 34.2293 42.4082V32.7574C34.2293 30.8648 32.6606 29.3434 30.768 29.3434H30.6954C30.2466 29.3421 29.802 29.4296 29.3871 29.6007C28.9722 29.7718 28.5952 30.0232 28.2778 30.3404C27.9603 30.6576 27.7087 31.0345 27.5373 31.4492C27.3659 31.864 27.2782 32.3086 27.2791 32.7574V46.1002C27.2753 46.5984 27.0753 47.075 26.7224 47.4267C26.3696 47.7784 25.8923 47.9769 25.3942 47.9791H20.2846L22.7235 45.0692C23.7989 43.9572 24.3969 42.4688 24.3898 40.9219C24.3992 39.4008 23.8135 37.9362 22.7577 36.8411C22.2415 36.3035 21.6218 35.876 20.9359 35.5846C20.2499 35.2932 19.5121 35.1438 18.7668 35.1456C18.0042 35.1456 17.2496 35.3002 16.5484 35.5999C15.8472 35.8996 15.214 36.3382 14.687 36.8893C12.4662 39.1608 12.4348 42.8439 14.6119 45.1139L18.0547 49.225ZM40.3595 20.4183C38.7964 18.8047 38.8182 16.1697 40.4104 14.5418C40.7803 14.1534 41.2251 13.844 41.7179 13.6323C42.2107 13.4206 42.7412 13.3108 43.2776 13.3098C43.7964 13.3086 44.3101 13.4127 44.7876 13.6157C45.2651 13.8187 45.6965 14.1164 46.0557 14.4909C46.8035 15.2695 47.2175 16.3095 47.2094 17.389C47.2154 18.5005 46.7836 19.5697 46.0073 20.3652C45.9938 20.3791 45.9807 20.3934 45.9684 20.4082L43.1577 23.7568L40.3964 20.4593C40.3846 20.4451 40.3723 20.4314 40.3595 20.4183ZM15.7816 37.9547C16.1668 37.5503 16.6299 37.2282 17.143 37.0078C17.6561 36.7874 18.2086 36.6733 18.767 36.6724C19.3075 36.6712 19.8425 36.7797 20.3399 36.9911C20.8372 37.2025 21.2866 37.5126 21.6608 37.9026C22.4397 38.7128 22.8709 39.7955 22.8623 40.9194C22.8684 42.0764 22.4187 43.1892 21.6105 44.0171C21.5971 44.031 21.5841 44.0453 21.5716 44.06L18.6432 47.5487L15.766 44.1129C15.7541 44.0988 15.7418 44.0851 15.7289 44.0718C14.1023 42.3923 14.1248 39.6493 15.7816 37.9547Z" fill="white"/>
<path d="M18.7018 43.8747C19.3364 43.8748 19.9567 43.6867 20.4843 43.3342C21.012 42.9817 21.4232 42.4806 21.6661 41.8944C21.9089 41.3082 21.9725 40.6631 21.8487 40.0407C21.725 39.4184 21.4194 38.8467 20.9707 38.398C20.522 37.9493 19.9503 37.6437 19.328 37.52C18.7056 37.3962 18.0605 37.4598 17.4743 37.7026C16.8881 37.9455 16.387 38.3568 16.0345 38.8844C15.682 39.412 15.4939 40.0323 15.494 40.6669C15.495 41.5174 15.8332 42.3327 16.4346 42.9341C17.036 43.5355 17.8513 43.8737 18.7018 43.8747ZM18.7018 38.9859C19.0342 38.9858 19.3592 39.0843 19.6356 39.2689C19.912 39.4535 20.1275 39.7159 20.2548 40.023C20.382 40.3301 20.4154 40.668 20.3506 40.994C20.2858 41.32 20.1258 41.6195 19.8909 41.8546C19.6559 42.0897 19.3564 42.2499 19.0304 42.3148C18.7044 42.3797 18.3665 42.3465 18.0594 42.2194C17.7523 42.0922 17.4897 41.8769 17.305 41.6006C17.1203 41.3242 17.0216 40.9993 17.0215 40.6669C17.0219 40.2213 17.199 39.7941 17.5141 39.4789C17.8291 39.1638 18.2562 38.9865 18.7018 38.9859ZM46.3407 17.1447C46.3408 16.5263 46.1575 15.9218 45.814 15.4076C45.4705 14.8934 44.9823 14.4927 44.4111 14.256C43.8398 14.0193 43.2112 13.9573 42.6047 14.0778C41.9982 14.1984 41.4411 14.4961 41.0038 14.9333C40.5665 15.3705 40.2687 15.9275 40.148 16.534C40.0273 17.1404 40.0891 17.769 40.3257 18.3404C40.5622 18.9117 40.9629 19.4 41.477 19.7436C41.9911 20.0872 42.5955 20.2706 43.2139 20.2707C44.0428 20.2699 44.8375 19.9403 45.4237 19.3542C46.0099 18.7682 46.3397 17.9735 46.3407 17.1447ZM41.6153 17.1447C41.6153 16.8284 41.709 16.5192 41.8846 16.2562C42.0603 15.9932 42.31 15.7882 42.6022 15.6671C42.8944 15.5461 43.2159 15.5144 43.5261 15.576C43.8363 15.6377 44.1212 15.79 44.3449 16.0137C44.5685 16.2373 44.7208 16.5222 44.7825 16.8324C44.8442 17.1426 44.8125 17.4641 44.6914 17.7563C44.5703 18.0485 44.3653 18.2982 44.1023 18.4739C43.8393 18.6496 43.5302 18.7433 43.2139 18.7432C42.7901 18.7427 42.3838 18.5741 42.0841 18.2745C41.7844 17.9748 41.6158 17.5685 41.6153 17.1447Z" fill="white"/>
<path d="M30 60C46.0329 60 59 46.7756 59 30.5C59 14.2244 46.0329 1 30 1C13.9671 1 1 14.2244 1 30.5C1 46.7756 13.9671 60 30 60Z" stroke="white" stroke-width="2"/>
</svg>
