<svg width="60" height="61" viewBox="0 0 60 61" fill="none" xmlns="http://www.w3.org/2000/svg">
<path d="M28.9476 13.812C28.7996 13.812 28.6577 13.8708 28.5531 13.9755C28.4484 14.0801 28.3897 14.222 28.3896 14.37V17.6131C28.3896 17.7592 28.4469 17.8995 28.5492 18.0038C28.6515 18.1082 28.7906 18.1682 28.9367 18.1711L31.1685 18.2212C31.2427 18.2226 31.3164 18.2093 31.3854 18.1819C31.4543 18.1545 31.5171 18.1136 31.5701 18.0616C31.6231 18.0097 31.6652 17.9477 31.6939 17.8793C31.7226 17.8109 31.7374 17.7374 31.7374 17.6632V14.37C31.7374 14.222 31.6786 14.0801 31.5739 13.9754C31.4693 13.8708 31.3274 13.812 31.1794 13.812H30.0635L28.9476 13.812ZM29.5056 14.9279H30.0635H30.6215V17.0922L29.5056 17.0682V14.9279Z" fill="white" stroke="white"/>
<path d="M30.049 23.2974C29.9886 23.2994 29.929 23.3111 29.8724 23.3322L15.3655 28.6393C15.2287 28.6896 15.117 28.7914 15.0543 28.923C14.9916 29.0545 14.9828 29.2054 15.0299 29.3433L20.6618 45.8357C20.6995 45.9457 20.7706 46.0411 20.8651 46.1087C20.9597 46.1763 21.073 46.2127 21.1892 46.2128H30.0642C30.2122 46.2128 30.3541 46.154 30.4587 46.0493C30.5634 45.9447 30.6222 45.8028 30.6222 45.6548V23.8553C30.6222 23.7807 30.6073 23.7069 30.5783 23.6382C30.5493 23.5695 30.5068 23.5073 30.4534 23.4553C30.3999 23.4033 30.3366 23.3625 30.2672 23.3353C30.1977 23.3082 30.1235 23.2953 30.049 23.2974ZM29.5063 24.6552V45.0969H21.5881L16.2635 29.5003L29.5063 24.6552Z" fill="white" stroke="white"/>
<path d="M30.056 23.2952C29.9257 23.2984 29.8007 23.347 29.7026 23.4327C29.6045 23.5184 29.5394 23.6357 29.5187 23.7643C29.498 23.893 29.523 24.0248 29.5892 24.1369C29.6555 24.2491 29.759 24.3345 29.8816 24.3784L43.8676 29.6289L38.5583 45.0969H29.0621C28.9882 45.0959 28.9148 45.1095 28.8462 45.1371C28.7776 45.1647 28.7151 45.2056 28.6625 45.2575C28.6098 45.3094 28.568 45.3713 28.5394 45.4395C28.5109 45.5077 28.4962 45.5809 28.4962 45.6549C28.4962 45.7288 28.5109 45.802 28.5394 45.8702C28.568 45.9384 28.6098 46.0003 28.6625 46.0522C28.7151 46.1041 28.7776 46.1451 28.8462 46.1726C28.9148 46.2002 28.9882 46.2139 29.0621 46.2128H38.9571C39.0734 46.2127 39.1867 46.1763 39.2812 46.1087C39.3758 46.0411 39.4469 45.9457 39.4846 45.8358L45.099 29.4785C45.1463 29.3411 45.1382 29.1907 45.0763 29.0592C45.0144 28.9278 44.9037 28.8256 44.7677 28.7745L30.2739 23.3322C30.2045 23.3055 30.1304 23.2929 30.056 23.2952Z" fill="white" stroke="white"/>
<path d="M22.25 20.5076C22.102 20.5076 21.9601 20.5664 21.8554 20.671C21.7508 20.7756 21.692 20.9176 21.692 21.0655V26.2876C21.691 26.3616 21.7046 26.435 21.7322 26.5036C21.7598 26.5722 21.8007 26.6346 21.8526 26.6873C21.9045 26.74 21.9664 26.7818 22.0346 26.8103C22.1028 26.8388 22.176 26.8535 22.25 26.8535C22.3239 26.8535 22.3971 26.8388 22.4653 26.8103C22.5335 26.7818 22.5954 26.74 22.6473 26.6873C22.6992 26.6346 22.7402 26.5722 22.7677 26.5036C22.7953 26.435 22.809 26.3616 22.8079 26.2876V21.6235H26.5523H33.5704H37.3148V26.6386C37.3137 26.7125 37.3274 26.7859 37.355 26.8545C37.3825 26.9231 37.4235 26.9856 37.4754 27.0382C37.5273 27.0909 37.5892 27.1327 37.6574 27.1612C37.7256 27.1898 37.7988 27.2045 37.8727 27.2045C37.9467 27.2045 38.0199 27.1898 38.0881 27.1612C38.1563 27.1327 38.2182 27.0909 38.2701 27.0382C38.322 26.9856 38.3629 26.9231 38.3905 26.8545C38.4181 26.7859 38.4317 26.7125 38.4307 26.6386V21.0655C38.4307 20.9176 38.3719 20.7756 38.2673 20.671C38.1626 20.5664 38.0207 20.5076 37.8727 20.5076H33.5704H26.5523H22.25Z" fill="white" stroke="white"/>
<path d="M25.6007 17.162C25.4527 17.162 25.3108 17.2208 25.2061 17.3254C25.1015 17.4301 25.0427 17.572 25.0427 17.7199V20.8497C25.0417 20.9237 25.0553 20.9971 25.0829 21.0657C25.1105 21.1343 25.1514 21.1967 25.2033 21.2494C25.2552 21.3021 25.3171 21.3439 25.3853 21.3724C25.4535 21.4009 25.5267 21.4156 25.6007 21.4156C25.6746 21.4156 25.7478 21.4009 25.816 21.3724C25.8843 21.3439 25.9461 21.3021 25.998 21.2494C26.0499 21.1967 26.0909 21.1343 26.1184 21.0657C26.146 20.9971 26.1597 20.9237 26.1586 20.8497V18.2779H28.0592H32.0695H33.97V21.059C33.969 21.1329 33.9826 21.2063 34.0102 21.2749C34.0378 21.3435 34.0787 21.406 34.1306 21.4586C34.1825 21.5113 34.2444 21.5531 34.3126 21.5816C34.3808 21.6102 34.454 21.6249 34.528 21.6249C34.6019 21.6249 34.6751 21.6102 34.7433 21.5816C34.8116 21.5531 34.8734 21.5113 34.9253 21.4586C34.9772 21.406 35.0182 21.3435 35.0457 21.2749C35.0733 21.2063 35.087 21.1329 35.0859 21.059V17.7199C35.0859 17.572 35.0271 17.4301 34.9225 17.3254C34.8179 17.2208 34.676 17.162 34.528 17.162H32.0695H28.0592H25.6007Z" fill="white" stroke="white"/>
<path d="M30 60C46.0329 60 59 46.7756 59 30.5C59 14.2244 46.0329 1 30 1C13.9671 1 1 14.2244 1 30.5C1 46.7756 13.9671 60 30 60Z" stroke="white" stroke-width="2"/>
</svg>
