<svg width="60" height="61" viewBox="0 0 60 61" fill="none" xmlns="http://www.w3.org/2000/svg">
<path d="M26.5378 35.8736C26.4255 35.8788 26.3147 35.8466 26.2227 35.7822C26.1306 35.7177 26.0624 35.6246 26.0289 35.5174L23.2347 26.453C23.1948 26.3248 23.2071 26.1859 23.2691 26.0667C23.331 25.9476 23.4376 25.8577 23.5655 25.8168C23.6297 25.7963 23.6973 25.7888 23.7643 25.7947C23.8314 25.8005 23.8967 25.8196 23.9563 25.8509C24.016 25.8821 24.0688 25.9249 24.1118 25.9767C24.1548 26.0285 24.1871 26.0883 24.2068 26.1527L26.5174 33.5986L28.6805 26.1629C28.696 26.0956 28.725 26.0321 28.7658 25.9763C28.8067 25.9206 28.8584 25.8738 28.9179 25.8387C28.9775 25.8036 29.0435 25.781 29.112 25.7722C29.1806 25.7635 29.2502 25.7688 29.3166 25.7878C29.383 25.8068 29.4449 25.8392 29.4984 25.8829C29.5519 25.9266 29.596 25.9807 29.6279 26.042C29.6598 26.1033 29.6789 26.1705 29.684 26.2394C29.6891 26.3083 29.6802 26.3775 29.6577 26.4428L27.0264 35.5072C26.9958 35.6121 26.9323 35.7043 26.8452 35.7703C26.7581 35.8363 26.6521 35.8725 26.5429 35.8736H26.5378ZM35.7956 35.8736H34.1822C33.5204 35.8671 32.8872 35.6031 32.4169 35.1375C31.9466 34.6719 31.6761 34.0414 31.6629 33.3798C31.6629 33.2448 31.7165 33.1153 31.812 33.0199C31.9074 32.9245 32.0369 32.8708 32.1719 32.8708C32.3068 32.8708 32.4363 32.9245 32.5317 33.0199C32.6272 33.1153 32.6808 33.2448 32.6808 33.3798C32.6887 33.775 32.8495 34.1519 33.1295 34.4309C33.4096 34.71 33.7869 34.8696 34.1822 34.8761H35.7956C36.1953 34.8762 36.5791 34.7195 36.8646 34.4397C37.15 34.16 37.3144 33.7794 37.3224 33.3798V32.7232C37.3224 32.3183 37.1616 31.9299 36.8752 31.6436C36.5889 31.3573 36.2005 31.1964 35.7956 31.1964H34.1822C33.5161 31.1898 32.8791 30.9222 32.4081 30.4512C31.9371 29.9801 31.6695 29.3432 31.6629 28.6771V28.2903C31.6709 27.6251 31.939 26.9894 32.4099 26.5195C32.8808 26.0495 33.517 25.7827 34.1822 25.7761H36.0297C36.6349 25.7761 37.2153 26.0161 37.6438 26.4436C38.0722 26.8711 38.3135 27.451 38.3149 28.0562C38.3149 28.1912 38.2612 28.3206 38.1658 28.4161C38.0703 28.5115 37.9409 28.5651 37.8059 28.5651C37.6709 28.5651 37.5415 28.5115 37.446 28.4161C37.3506 28.3206 37.297 28.1912 37.297 28.0562C37.2956 27.721 37.1615 27.3999 36.924 27.1634C36.6865 26.9268 36.3649 26.794 36.0297 26.794H34.1822C33.7869 26.8005 33.4096 26.9601 33.1295 27.2391C32.8495 27.5182 32.6887 27.895 32.6808 28.2903V28.6822C32.6807 29.0828 32.8381 29.4673 33.119 29.7529C33.3998 30.0385 33.7817 30.2024 34.1822 30.209H35.7956C36.4661 30.209 37.1095 30.4736 37.586 30.9453C38.0625 31.4171 38.3336 32.0578 38.3403 32.7283V33.3798C38.327 34.0458 38.053 34.6801 37.5772 35.1464C37.1014 35.6127 36.4617 35.8738 35.7956 35.8736Z" fill="white" stroke="white"/>
<path d="M30.7611 42.887C28.3774 42.887 26.0473 42.1802 24.0654 40.8559C22.0835 39.5316 20.5387 37.6494 19.6266 35.4472C18.7144 33.245 18.4757 30.8217 18.9407 28.4839C19.4058 26.1461 20.5536 23.9986 22.2391 22.3131C23.9246 20.6276 26.072 19.4798 28.4099 19.0148C30.7477 18.5498 33.1709 18.7884 35.3731 19.7006C37.5753 20.6128 39.4576 22.1575 40.7819 24.1394C42.1061 26.1214 42.813 28.4515 42.813 30.8351C42.8103 34.0306 41.5397 37.0945 39.2801 39.3541C37.0205 41.6137 33.9566 42.8843 30.7611 42.887ZM30.7611 19.8011C28.5788 19.8011 26.4454 20.4482 24.6309 21.6607C22.8164 22.8731 21.4021 24.5964 20.567 26.6126C19.7318 28.6288 19.5133 30.8473 19.9391 32.9877C20.3648 35.1281 21.4157 37.0942 22.9589 38.6373C24.502 40.1805 26.4681 41.2313 28.6084 41.6571C30.7488 42.0828 32.9674 41.8643 34.9836 41.0292C36.9998 40.1941 38.7231 38.7798 39.9355 36.9653C41.1479 35.1507 41.7951 33.0174 41.7951 30.8351C41.7924 27.9095 40.629 25.1046 38.5603 23.0359C36.4916 20.9672 33.6866 19.8038 30.7611 19.8011Z" fill="white" stroke="white"/>
<path d="M38.9056 23.2008C38.8387 23.2012 38.7723 23.1884 38.7102 23.1631C38.6482 23.1377 38.5918 23.1004 38.5443 23.0533C38.4966 23.0059 38.4587 22.9496 38.4329 22.8876C38.407 22.8256 38.3937 22.7591 38.3937 22.6919C38.3937 22.6247 38.407 22.5582 38.4329 22.4962C38.4587 22.4342 38.4966 22.3779 38.5443 22.3305L44.6517 16.2232C44.6991 16.1757 44.7554 16.1381 44.8174 16.1124C44.8794 16.0867 44.9459 16.0735 45.013 16.0735C45.0801 16.0735 45.1466 16.0867 45.2086 16.1124C45.2706 16.1381 45.3269 16.1757 45.3744 16.2232C45.4218 16.2706 45.4595 16.327 45.4851 16.389C45.5108 16.451 45.524 16.5174 45.524 16.5845C45.524 16.6516 45.5108 16.7181 45.4851 16.7801C45.4595 16.8421 45.4218 16.8984 45.3744 16.9459L39.267 23.0533C39.2194 23.1004 39.163 23.1377 39.101 23.1631C39.039 23.1884 38.9726 23.2012 38.9056 23.2008ZM16.5119 45.5946C16.4449 45.595 16.3785 45.5821 16.3165 45.5568C16.2545 45.5315 16.1981 45.4942 16.1505 45.447C16.1028 45.3997 16.065 45.3434 16.0391 45.2814C16.0133 45.2193 16 45.1528 16 45.0856C16 45.0185 16.0133 44.9519 16.0391 44.8899C16.065 44.8279 16.1028 44.7716 16.1505 44.7243L22.2579 38.6169C22.3538 38.5211 22.4837 38.4672 22.6193 38.4672C22.7548 38.4672 22.8848 38.5211 22.9806 38.6169C23.0765 38.7127 23.1303 38.8427 23.1303 38.9783C23.1303 39.1138 23.0765 39.2438 22.9806 39.3396L16.8733 45.447C16.8257 45.4942 16.7693 45.5315 16.7073 45.5568C16.6453 45.5821 16.5789 45.595 16.5119 45.5946Z" fill="white" stroke="white"/>
<path d="M30 60C46.0329 60 59 46.7756 59 30.5C59 14.2244 46.0329 1 30 1C13.9671 1 1 14.2244 1 30.5C1 46.7756 13.9671 60 30 60Z" stroke="white" stroke-width="2"/>
</svg>
