<svg width="31" height="30" viewBox="0 0 31 30" fill="none" xmlns="http://www.w3.org/2000/svg">
<rect x="0.666199" width="30.1908" height="30" rx="4" fill="#41DFE2"/>
<path d="M8.17401 19.1604C7.70858 19.4577 7.57447 20.0746 7.87446 20.5383C8.17445 21.002 8.79495 21.1369 9.26038 20.8396L8.17401 19.1604ZM23.7862 11.213C23.9032 10.6749 23.5593 10.1433 23.018 10.0256L14.1981 8.10831C13.6569 7.99065 13.1233 8.3315 13.0063 8.86963C12.8893 9.40775 13.2333 9.93936 13.7745 10.057L21.6144 11.7613L19.9199 19.5562C19.8029 20.0943 20.1469 20.6259 20.6881 20.7436C21.2293 20.8612 21.7629 20.5204 21.8799 19.9822L23.7862 11.213ZM9.26038 20.8396L23.3494 11.8396L22.263 10.1604L8.17401 19.1604L9.26038 20.8396Z" fill="#0A0A23"/>
</svg>
