<svg width="60" height="61" viewBox="0 0 60 61" fill="none" xmlns="http://www.w3.org/2000/svg">
<path d="M30 60C46.0329 60 59 46.7756 59 30.5C59 14.2244 46.0329 1 30 1C13.9671 1 1 14.2244 1 30.5C1 46.7756 13.9671 60 30 60Z" stroke="white" stroke-width="2"/>
<path fill-rule="evenodd" clip-rule="evenodd" d="M20.8037 16H22.9463C23.6978 16 24.3039 16 24.7973 16.0336C25.3045 16.0683 25.7531 16.1412 26.1779 16.3172C27.1988 16.7401 28.0099 17.5512 28.4328 18.5721C28.6088 18.9969 28.6817 19.4455 28.7164 19.9528C28.75 20.4461 28.75 21.0522 28.75 21.8037V23.9463C28.75 24.6978 28.75 25.3039 28.7164 25.7973C28.6817 26.3045 28.6088 26.7531 28.4328 27.1779C28.0099 28.1988 27.1988 29.0099 26.1779 29.4328C25.7531 29.6088 25.3045 29.6817 24.7973 29.7164C24.3039 29.75 23.6978 29.75 22.9463 29.75H20.8037C20.0522 29.75 19.4461 29.75 18.9528 29.7164C18.4455 29.6817 17.9969 29.6088 17.5721 29.4328C16.5512 29.0099 15.7401 28.1988 15.3172 27.1779C15.1412 26.7531 15.0683 26.3045 15.0336 25.7973C15 25.3039 15 24.6978 15 23.9463V21.8037C15 21.0522 15 20.4461 15.0336 19.9528C15.0683 19.4455 15.1412 18.9969 15.3172 18.5721C15.7401 17.5512 16.5512 16.7401 17.5721 16.3172C17.9969 16.1412 18.4455 16.0683 18.9528 16.0336C19.4461 16 20.0522 16 20.8037 16ZM19.0662 17.6964C18.6438 17.7253 18.3978 17.7792 18.2099 17.8569C17.5974 18.1107 17.1107 18.5974 16.8569 19.2099C16.7792 19.3978 16.7253 19.6438 16.6964 20.0662C16.6671 20.4961 16.6667 21.0454 16.6667 21.8333V23.9167C16.6667 24.7046 16.6671 25.2539 16.6964 25.6838C16.7253 26.1063 16.7792 26.3522 16.8569 26.5401C17.1107 27.1526 17.5974 27.6393 18.2099 27.8931C18.3978 27.9708 18.6438 28.0247 19.0662 28.0536C19.4961 28.0829 20.0454 28.0833 20.8333 28.0833H22.9167C23.7046 28.0833 24.2539 28.0829 24.6838 28.0536C25.1063 28.0247 25.3522 27.9708 25.5401 27.8931C26.1526 27.6393 26.6393 27.1526 26.8931 26.5401C26.9708 26.3522 27.0247 26.1063 27.0536 25.6838C27.0829 25.2539 27.0833 24.7046 27.0833 23.9167V21.8333C27.0833 21.0454 27.0829 20.4961 27.0536 20.0662C27.0247 19.6438 26.9708 19.3978 26.8931 19.2099C26.6393 18.5974 26.1526 18.1107 25.5401 17.8569C25.3522 17.7792 25.1063 17.7253 24.6838 17.6964C24.2539 17.6671 23.7046 17.6667 22.9167 17.6667H20.8333C20.0454 17.6667 19.4961 17.6671 19.0662 17.6964ZM20.8037 32.25H22.9463C23.6978 32.25 24.3039 32.25 24.7973 32.2836C25.3045 32.3182 25.7531 32.3912 26.1779 32.5672C27.1988 32.9901 28.0099 33.8012 28.4328 34.8221C28.6088 35.2469 28.6817 35.6955 28.7164 36.2028C28.75 36.6961 28.75 37.3022 28.75 38.0537V40.1963C28.75 40.9478 28.75 41.5539 28.7164 42.0472C28.6817 42.5545 28.6088 43.0031 28.4328 43.4279C28.0099 44.4488 27.1988 45.2599 26.1779 45.6828C25.7531 45.8588 25.3045 45.9318 24.7973 45.9664C24.3039 46 23.6978 46 22.9463 46H20.8037C20.0522 46 19.4461 46 18.9528 45.9664C18.4455 45.9318 17.9969 45.8588 17.5721 45.6828C16.5512 45.2599 15.7401 44.4488 15.3172 43.4279C15.1412 43.0031 15.0683 42.5545 15.0336 42.0472C15 41.5539 15 40.9478 15 40.1963V38.0537C15 37.3022 15 36.6961 15.0336 36.2028C15.0683 35.6955 15.1412 35.2469 15.3172 34.8221C15.7401 33.8012 16.5512 32.9901 17.5721 32.5672C17.9969 32.3912 18.4455 32.3182 18.9528 32.2836C19.4461 32.25 20.0522 32.25 20.8037 32.25ZM19.0662 33.9464C18.6438 33.9752 18.3978 34.0292 18.2099 34.1069C17.5974 34.3607 17.1107 34.8474 16.8569 35.4599C16.7792 35.6477 16.7253 35.8938 16.6964 36.3162C16.6671 36.7461 16.6667 37.2954 16.6667 38.0833V40.1667C16.6667 40.9546 16.6671 41.5039 16.6964 41.9338C16.7253 42.3562 16.7792 42.6023 16.8569 42.7901C17.1107 43.4026 17.5974 43.8893 18.2099 44.1431C18.3978 44.2208 18.6438 44.2748 19.0662 44.3036C19.4961 44.3329 20.0454 44.3333 20.8333 44.3333H22.9167C23.7046 44.3333 24.2539 44.3329 24.6838 44.3036C25.1063 44.2748 25.3522 44.2208 25.5401 44.1431C26.1526 43.8893 26.6393 43.4026 26.8931 42.7901C26.9708 42.6023 27.0247 42.3562 27.0536 41.9338C27.0829 41.5039 27.0833 40.9546 27.0833 40.1667V38.0833C27.0833 37.2954 27.0829 36.7461 27.0536 36.3162C27.0247 35.8938 26.9708 35.6477 26.8931 35.4599C26.6393 34.8474 26.1526 34.3607 25.5401 34.1069C25.3522 34.0292 25.1063 33.9752 24.6838 33.9464C24.2539 33.9171 23.7046 33.9167 22.9167 33.9167H20.8333C20.0454 33.9167 19.4961 33.9171 19.0662 33.9464ZM37.0537 16H39.1963C39.9478 16 40.5539 16 41.0472 16.0336C41.5545 16.0683 42.0031 16.1412 42.4279 16.3172C43.4488 16.7401 44.2599 17.5512 44.6828 18.5721C44.8588 18.9969 44.9318 19.4455 44.9664 19.9528C45 20.4461 45 21.0522 45 21.8037V23.9463C45 24.6978 45 25.3039 44.9664 25.7973C44.9318 26.3045 44.8588 26.7531 44.6828 27.1779C44.2599 28.1988 43.4488 29.0099 42.4279 29.4328C42.0031 29.6088 41.5545 29.6817 41.0472 29.7164C40.5539 29.75 39.9478 29.75 39.1963 29.75H37.0537C36.3022 29.75 35.6961 29.75 35.2028 29.7164C34.6955 29.6817 34.2469 29.6088 33.8221 29.4328C32.8012 29.0099 31.9901 28.1988 31.5672 27.1779C31.3912 26.7531 31.3182 26.3045 31.2836 25.7973C31.25 25.3039 31.25 24.6978 31.25 23.9463V21.8037C31.25 21.0522 31.25 20.4461 31.2836 19.9528C31.3182 19.4455 31.3912 18.9969 31.5672 18.5721C31.9901 17.5512 32.8012 16.7401 33.8221 16.3172C34.2469 16.1412 34.6955 16.0683 35.2028 16.0336C35.6961 16 36.3022 16 37.0537 16ZM35.3162 17.6964C34.8938 17.7253 34.6477 17.7792 34.4599 17.8569C33.8474 18.1107 33.3607 18.5974 33.1069 19.2099C33.0292 19.3978 32.9752 19.6438 32.9464 20.0662C32.9171 20.4961 32.9167 21.0454 32.9167 21.8333V23.9167C32.9167 24.7046 32.9171 25.2539 32.9464 25.6838C32.9752 26.1063 33.0292 26.3522 33.1069 26.5401C33.3607 27.1526 33.8474 27.6393 34.4599 27.8931C34.6477 27.9708 34.8938 28.0247 35.3162 28.0536C35.7461 28.0829 36.2954 28.0833 37.0833 28.0833H39.1667C39.9546 28.0833 40.5039 28.0829 40.9338 28.0536C41.3562 28.0247 41.6023 27.9708 41.7901 27.8931C42.4026 27.6393 42.8893 27.1526 43.1431 26.5401C43.2208 26.3522 43.2748 26.1063 43.3036 25.6838C43.3329 25.2539 43.3333 24.7046 43.3333 23.9167V21.8333C43.3333 21.0454 43.3329 20.4961 43.3036 20.0662C43.2748 19.6438 43.2208 19.3978 43.1431 19.2099C42.8893 18.5974 42.4026 18.1107 41.7901 17.8569C41.6023 17.7792 41.3562 17.7253 40.9338 17.6964C40.5039 17.6671 39.9546 17.6667 39.1667 17.6667H37.0833C36.2954 17.6667 35.7461 17.6671 35.3162 17.6964ZM37.0537 32.25H39.1963C39.9478 32.25 40.5539 32.25 41.0472 32.2836C41.5545 32.3182 42.0031 32.3912 42.4279 32.5672C43.4488 32.9901 44.2599 33.8012 44.6828 34.8221C44.8588 35.2469 44.9318 35.6955 44.9664 36.2028C45 36.6961 45 37.3022 45 38.0537V40.1963C45 40.9478 45 41.5539 44.9664 42.0472C44.9318 42.5545 44.8588 43.0031 44.6828 43.4279C44.2599 44.4488 43.4488 45.2599 42.4279 45.6828C42.0031 45.8588 41.5545 45.9318 41.0472 45.9664C40.5539 46 39.9478 46 39.1963 46H37.0537C36.3022 46 35.6961 46 35.2028 45.9664C34.6955 45.9318 34.2469 45.8588 33.8221 45.6828C32.8012 45.2599 31.9901 44.4488 31.5672 43.4279C31.3912 43.0031 31.3182 42.5545 31.2836 42.0472C31.25 41.5539 31.25 40.9478 31.25 40.1963V38.0537C31.25 37.3022 31.25 36.6961 31.2836 36.2028C31.3182 35.6955 31.3912 35.2469 31.5672 34.8221C31.9901 33.8012 32.8012 32.9901 33.8221 32.5672C34.2469 32.3912 34.6955 32.3182 35.2028 32.2836C35.6961 32.25 36.3022 32.25 37.0537 32.25ZM35.3162 33.9464C34.8938 33.9752 34.6477 34.0292 34.4599 34.1069C33.8474 34.3607 33.3607 34.8474 33.1069 35.4599C33.0292 35.6477 32.9752 35.8938 32.9464 36.3162C32.9171 36.7461 32.9167 37.2954 32.9167 38.0833V40.1667C32.9167 40.9546 32.9171 41.5039 32.9464 41.9338C32.9752 42.3562 33.0292 42.6023 33.1069 42.7901C33.3607 43.4026 33.8474 43.8893 34.4599 44.1431C34.6477 44.2208 34.8938 44.2748 35.3162 44.3036C35.7461 44.3329 36.2954 44.3333 37.0833 44.3333H39.1667C39.9546 44.3333 40.5039 44.3329 40.9338 44.3036C41.3562 44.2748 41.6023 44.2208 41.7901 44.1431C42.4026 43.8893 42.8893 43.4026 43.1431 42.7901C43.2208 42.6023 43.2748 42.3562 43.3036 41.9338C43.3329 41.5039 43.3333 40.9546 43.3333 40.1667V38.0833C43.3333 37.2954 43.3329 36.7461 43.3036 36.3162C43.2748 35.8938 43.2208 35.6477 43.1431 35.4599C42.8893 34.8474 42.4026 34.3607 41.7901 34.1069C41.6023 34.0292 41.3562 33.9752 40.9338 33.9464C40.5039 33.9171 39.9546 33.9167 39.1667 33.9167H37.0833C36.2954 33.9167 35.7461 33.9171 35.3162 33.9464Z" fill="white"/>
</svg>
