<svg width="60" height="61" viewBox="0 0 60 61" fill="none" xmlns="http://www.w3.org/2000/svg">
<path d="M43.7365 33.2918V22.6133C41.7833 23.665 40.0151 24.1908 38.4319 24.1908C37.4842 24.1908 36.6463 24.0059 35.9182 23.6361C34.7626 23.0698 33.6993 22.6278 32.7285 22.3099C31.7578 21.9921 30.7292 21.8332 29.6429 21.8332C27.6435 21.8332 25.3148 22.5671 22.6567 24.0348V34.4186C25.4882 33.1127 27.9902 32.4597 30.1629 32.4597C30.7986 32.4597 31.3966 32.5031 31.9571 32.5898C32.5176 32.6764 33.0839 32.8267 33.656 33.0405C34.228 33.2543 34.673 33.4334 34.9908 33.5779C35.3086 33.7223 35.7853 33.9506 36.421 34.2626L36.9064 34.5053C37.4149 34.7596 37.9985 34.8867 38.6572 34.8867C40.044 34.8867 41.7371 34.3551 43.7365 33.2918ZM20.4378 19.6143C20.4378 20.0188 20.3367 20.3886 20.1345 20.7238C19.9322 21.0589 19.6635 21.3247 19.3284 21.5212V43.4677C19.3284 43.6294 19.2764 43.7624 19.1724 43.8664C19.0683 43.9704 18.9354 44.0224 18.7736 44.0224H17.6642C17.5024 44.0224 17.3695 43.9704 17.2655 43.8664C17.1615 43.7624 17.1095 43.6294 17.1095 43.4677V21.5212C16.7743 21.3247 16.5056 21.0589 16.3034 20.7238C16.1011 20.3886 16 20.0188 16 19.6143C16 19.0018 16.2167 18.4788 16.6501 18.0455C17.0835 17.6121 17.6064 17.3954 18.2189 17.3954C18.8314 17.3954 19.3544 17.6121 19.7878 18.0455C20.2211 18.4788 20.4378 19.0018 20.4378 19.6143ZM45.9554 20.7238V33.9506C45.9554 34.4013 45.7531 34.7307 45.3486 34.9387C45.2331 34.9965 45.1348 35.0485 45.0539 35.0947C42.5345 36.4353 40.4023 37.1056 38.6572 37.1056C37.6402 37.1056 36.7272 36.9034 35.9182 36.4989L35.4329 36.2562C34.6932 35.8748 34.1211 35.5974 33.7167 35.4241C33.3122 35.2507 32.7863 35.0832 32.1391 34.9214C31.492 34.7596 30.8332 34.6787 30.1629 34.6787C28.9841 34.6787 27.6233 34.9329 26.0805 35.4414C24.5376 35.9499 23.2173 36.5393 22.1194 37.2096C21.946 37.3136 21.7553 37.3656 21.5473 37.3656C21.3624 37.3656 21.1775 37.3194 20.9926 37.227C20.6227 37.0074 20.4378 36.6838 20.4378 36.2562V23.3934C20.4378 22.9889 20.617 22.6711 20.9752 22.44C21.3797 22.1973 21.8333 21.9517 22.336 21.7032C22.8388 21.4547 23.4975 21.1543 24.3123 20.8018C25.127 20.4493 26.0082 20.1633 26.9559 19.9437C27.9036 19.7241 28.7992 19.6143 29.6429 19.6143C30.9372 19.6143 32.1449 19.7934 33.2659 20.1517C34.387 20.51 35.5946 21.0069 36.889 21.6425C37.3282 21.8621 37.8425 21.9719 38.4319 21.9719C39.8418 21.9719 41.6331 21.3247 43.8058 20.0303C44.06 19.8917 44.2392 19.7934 44.3432 19.7356C44.7014 19.5507 45.0597 19.5623 45.418 19.7703C45.7762 20.0015 45.9554 20.3193 45.9554 20.7238Z" fill="white"/>
<path d="M30 60C46.0329 60 59 46.7756 59 30.5C59 14.2244 46.0329 1 30 1C13.9671 1 1 14.2244 1 30.5C1 46.7756 13.9671 60 30 60Z" stroke="white" stroke-width="2"/>
</svg>
