<svg width="60" height="61" viewBox="0 0 60 61" fill="none" xmlns="http://www.w3.org/2000/svg">
<path fill-rule="evenodd" clip-rule="evenodd" d="M39.9451 20.3186C39.6235 20.3284 39.3183 20.4632 39.0945 20.6944L17.6182 42.166C17.5034 42.2809 17.4124 42.4173 17.3504 42.5674C17.2883 42.7175 17.2564 42.8782 17.2565 43.0406C17.2566 43.2031 17.2888 43.3639 17.351 43.5139C17.4133 43.6639 17.5045 43.8002 17.6194 43.915C17.7344 44.0298 17.8708 44.121 18.0209 44.183C18.171 44.2451 18.3319 44.277 18.4944 44.2769C18.6568 44.2768 18.8176 44.2447 18.9676 44.1824C19.1177 44.1202 19.254 44.0288 19.3688 43.9138L40.8426 22.4425C41.0227 22.2692 41.146 22.0454 41.1963 21.8006C41.2466 21.5557 41.2215 21.3014 41.1243 21.0711C41.0271 20.8408 40.8624 20.6453 40.6519 20.5106C40.4413 20.3758 40.1949 20.3105 39.9451 20.3186Z" fill="white"/>
<path d="M44.6121 16.9265C43.9142 16.2367 42.9725 15.8499 41.9912 15.8499C41.01 15.8499 40.0683 16.2367 39.3704 16.9265C38.6806 17.6244 38.2938 18.5659 38.2938 19.5472C38.2938 20.5284 38.6806 21.4703 39.3704 22.1682C40.8044 23.6072 43.1756 23.6072 44.6121 22.1682C45.3018 21.4703 45.6887 20.5284 45.6887 19.5472C45.6887 18.5659 45.3018 17.6244 44.6121 16.9265ZM42.864 18.6719C43.3585 19.1664 43.3585 19.928 42.864 20.42C42.3695 20.9145 41.6105 20.9145 41.116 20.42C40.6215 19.928 40.6215 19.1664 41.116 18.6719C41.6105 18.1774 42.372 18.1774 42.864 18.6719Z" fill="white"/>
<path d="M20.793 21.4042C20.6554 21.2826 20.4926 21.1933 20.3162 21.1425C20.1398 21.0917 19.9543 21.0807 19.7732 21.1105C19.5921 21.1403 19.4199 21.2102 19.2691 21.3148C19.1183 21.4195 18.9927 21.5567 18.9015 21.716C15.1704 27.9615 15.9345 35.7597 20.8548 40.68C25.7751 45.6003 33.5759 46.3669 39.819 42.6334C39.9684 42.5556 40.1003 42.448 40.2066 42.3174C40.313 42.1868 40.3915 42.0357 40.4374 41.8737C40.4833 41.7117 40.4957 41.5421 40.4736 41.3751C40.4516 41.2081 40.3957 41.0473 40.3093 40.9027C40.2229 40.7582 40.1079 40.6328 39.9713 40.5342C39.8347 40.4357 39.6794 40.3663 39.515 40.3299C39.3505 40.2935 39.1804 40.2909 39.015 40.3226C38.8495 40.3544 38.6924 40.4196 38.5531 40.5143C33.21 43.7063 26.6924 43.0214 22.6053 38.9318C18.5158 34.8448 17.8284 28.3249 21.0229 22.9842C21.1772 22.7359 21.2386 22.441 21.196 22.1518C21.1535 21.8625 21.0098 21.5975 20.7905 21.4042H20.793Z" fill="white"/>
<path d="M19.4838 42.146C19.6272 42.2756 19.799 42.3698 19.9854 42.421C20.1718 42.4721 20.3676 42.4788 20.557 42.4406C20.7465 42.4024 20.9244 42.3201 21.0763 42.2007C21.2283 42.0812 21.3502 41.9278 21.4321 41.7528C22.1986 40.1703 21.8797 38.2815 20.856 36.7238C20.7704 36.5805 20.6566 36.4561 20.5215 36.358C20.3864 36.2599 20.2329 36.1902 20.0701 36.1531C19.9074 36.1159 19.7388 36.1121 19.5745 36.1419C19.4103 36.1717 19.2537 36.2344 19.1144 36.3263C18.975 36.4182 18.8557 36.5372 18.7637 36.6764C18.6716 36.8157 18.6087 36.9722 18.5788 37.1364C18.5488 37.3006 18.5525 37.4692 18.5894 37.632C18.6264 37.7948 18.696 37.9486 18.7939 38.0838C19.4368 39.058 19.4961 40.0741 19.2069 40.675C19.0858 40.9167 19.0473 41.1916 19.0973 41.4573C19.1473 41.723 19.2831 41.9648 19.4838 42.146Z" fill="white"/>
<path d="M19.396 42.0546C19.2655 41.911 19.1707 41.7385 19.1191 41.5515C19.0676 41.3644 19.0608 41.1679 19.0993 40.9777C19.1378 40.7875 19.2206 40.609 19.3408 40.4568C19.4611 40.3045 19.6155 40.1827 19.7916 40.1012C21.3716 39.3372 23.2581 39.6538 24.8158 40.6774C24.9565 40.7641 25.0785 40.8781 25.1744 41.0127C25.2703 41.1473 25.3383 41.2999 25.3742 41.4612C25.4102 41.6226 25.4134 41.7894 25.3838 41.952C25.3541 42.1146 25.2921 42.2695 25.2015 42.4077C25.1109 42.546 24.9935 42.6646 24.8562 42.7567C24.7189 42.8487 24.5646 42.9124 24.4023 42.9438C24.24 42.9752 24.0731 42.9738 23.9114 42.9396C23.7497 42.9053 23.5965 42.8388 23.4609 42.7443C22.4842 42.1014 21.468 42.0397 20.8697 42.329C20.6276 42.4506 20.3523 42.4895 20.0861 42.4394C19.8198 42.3894 19.5774 42.2559 19.396 42.0546Z" fill="white"/>
<path fill-rule="evenodd" clip-rule="evenodd" d="M33.434 21.5992C33.1878 21.5992 32.9473 21.6729 32.7432 21.8105C32.539 21.948 32.3806 22.1434 32.2882 22.3716C32.1958 22.5997 32.1736 22.85 32.2244 23.0908C32.2752 23.3317 32.3968 23.5518 32.5735 23.7231L37.8177 28.9649C37.9305 29.0876 38.0669 29.1863 38.2188 29.2549C38.3707 29.3236 38.5349 29.3609 38.7015 29.3645C38.8681 29.368 39.0337 29.3378 39.1884 29.2757C39.3431 29.2137 39.4836 29.121 39.6015 29.0032C39.7194 28.8854 39.8123 28.7452 39.8746 28.5906C39.9369 28.436 39.9673 28.2704 39.964 28.1038C39.9606 27.9371 39.9236 27.7728 39.8552 27.6209C39.7868 27.4689 39.6884 27.3324 39.5658 27.2194L34.3241 21.9753C34.2087 21.8556 34.0705 21.7605 33.9175 21.6955C33.7646 21.6305 33.6001 21.5992 33.434 21.5992Z" fill="white"/>
<path fill-rule="evenodd" clip-rule="evenodd" d="M20.8673 20.2148C20.7559 20.2164 20.6453 20.233 20.5384 20.2643L19.3467 20.5833L18.1525 20.902L16.9558 21.2235C16.7942 21.2611 16.6418 21.3309 16.5078 21.4287C16.3737 21.5265 16.2607 21.6503 16.1755 21.7927C16.0903 21.935 16.0346 22.0932 16.0118 22.2575C15.9889 22.4218 15.9994 22.589 16.0426 22.7492C16.0857 22.9094 16.1607 23.0592 16.263 23.1898C16.3653 23.3204 16.4929 23.4292 16.6381 23.5094C16.7833 23.5897 16.9431 23.6398 17.1082 23.657C17.2732 23.6742 17.44 23.6583 17.5986 23.6097L18.7904 23.293L19.9846 22.9716L21.1813 22.655C21.4802 22.5861 21.7429 22.4085 21.9182 22.1567C22.0934 21.9049 22.1688 21.5969 22.1297 21.2926C22.0905 20.9883 21.9396 20.7095 21.7063 20.5102C21.473 20.311 21.1739 20.2058 20.8673 20.2148Z" fill="white"/>
<path fill-rule="evenodd" clip-rule="evenodd" d="M20.9053 20.2149C20.7112 20.21 20.5187 20.251 20.3434 20.3344C20.1681 20.4178 20.0149 20.5411 19.8962 20.6948C19.7775 20.8484 19.6967 21.0277 19.6602 21.2184C19.6237 21.4091 19.6327 21.6056 19.6863 21.7922L20.3242 24.1808L20.6457 25.3751C20.7309 25.6918 20.9385 25.9617 21.2227 26.1254C21.507 26.2891 21.8446 26.3329 22.1613 26.2477C22.478 26.1624 22.7479 25.9548 22.9116 25.6706C23.0753 25.3863 23.1194 25.049 23.0341 24.7322L22.7152 23.5403L22.0723 21.1544C22.0074 20.8917 21.8581 20.6574 21.6473 20.4877C21.4365 20.318 21.1758 20.2221 20.9053 20.2149ZM40.0179 39.4264C39.7539 39.44 39.5013 39.5378 39.297 39.7056C39.0927 39.8733 38.9476 40.1021 38.883 40.3584L38.564 41.5527L38.2426 42.7443L37.9212 43.9438C37.8794 44.1008 37.869 44.2642 37.8906 44.4252C37.9121 44.5862 37.9651 44.7416 38.0466 44.8821C38.1281 45.0226 38.2365 45.1457 38.3656 45.2443C38.4947 45.3429 38.6419 45.4151 38.7989 45.4568C38.9559 45.4985 39.1196 45.5088 39.2806 45.4873C39.4416 45.4657 39.5968 45.4127 39.7373 45.3312C39.8778 45.2497 40.0009 45.1416 40.0995 45.0125C40.1981 44.8834 40.2704 44.7361 40.3121 44.5791L40.6335 43.3872L40.95 42.1956L41.269 40.9965C41.3222 40.8077 41.3297 40.6089 41.2909 40.4167C41.2521 40.2244 41.1681 40.044 41.0459 39.8906C40.9236 39.7372 40.7667 39.6152 40.5879 39.5345C40.4092 39.4537 40.2138 39.4167 40.0179 39.4264Z" fill="white"/>
<path fill-rule="evenodd" clip-rule="evenodd" d="M36.4363 38.4573C36.1386 38.4661 35.854 38.5818 35.6349 38.7836C35.4159 38.9854 35.277 39.2596 35.2439 39.5557C35.2108 39.8517 35.2857 40.1495 35.4548 40.3947C35.6239 40.6399 35.8759 40.8158 36.1643 40.89L37.3586 41.2115L38.5503 41.5329L39.7495 41.8519C40.0666 41.9365 40.4042 41.8916 40.6882 41.7273C40.9722 41.5629 41.1793 41.2925 41.2639 40.9754C41.3485 40.6584 41.3037 40.3208 41.1393 40.0368C40.9749 39.7528 40.7045 39.5455 40.3874 39.4609L39.1932 39.1422L37.9965 38.8231L36.8023 38.5041C36.6833 38.4702 36.56 38.4546 36.4363 38.4573Z" fill="white"/>
<path d="M30 60C46.0329 60 59 46.7756 59 30.5C59 14.2244 46.0329 1 30 1C13.9671 1 1 14.2244 1 30.5C1 46.7756 13.9671 60 30 60Z" stroke="white" stroke-width="2"/>
</svg>
